<?xml version="1.0" encoding="utf-8"?>
<!-- Generator: Adobe Illustrator 22.0.1, SVG Export Plug-In . SVG Version: 6.00 Build 0)  -->
<svg version="1.1" baseProfile="tiny" id="Layer_1" xmlns="http://www.w3.org/2000/svg" xmlns:xlink="http://www.w3.org/1999/xlink"
	 x="0px" y="0px" viewBox="0 0 2207.8 859.8" xml:space="preserve">
<path fill="#FFFFFF" d="M434.8,53.1h156v256.6c0,116.6-2.3,183.5-7,200.7c-7.5,34.4-16.7,63.7-27.4,87.7
	c-12.2,31.6-37.5,68.9-75.9,111.9c-48.4,45.2-89.7,73.2-123.7,83.9c-15.4,8.3-40.7,16.7-75.9,25.3c-17.9,5.7-91.6,8.8-221.1,9.1
	V677.2h87.7c69.2,0,112.1-4.8,128.6-14.5c22.6-5,52.5-24,89.8-57c45.2-45.5,67.8-105.8,67.8-180.8c0.7-10,1.1-36.9,1.1-80.7V53.1z"
	/>
<path fill="#FFFFFF" d="M1059.4,205.3c-69.9,0-130.7,31.4-182.4,94.1c-31.2,37.7-46.8,93.4-46.8,167.3v361h-156V557.7
	c0-127,2.5-190.4,7.5-190.4c0.4-13.6,9.7-43.4,28-89.3c18.6-39.8,44.1-76.2,76.4-109.2c40.9-39.4,78.2-65.8,111.9-79.1
	c51.6-24.4,107.1-36.6,166.2-36.6c59.5,0,115.1,12.2,166.8,36.6c33.7,13.3,70.8,39.6,111.4,79.1c32.3,33,57.7,69.4,76.4,109.2
	c18.3,45.9,27.8,75.7,28.5,89.3c5,0,7.5,63.5,7.5,190.4v270.1h-156.6v-361c0-73.9-15.4-129.7-46.3-167.3
	c-51.6-62.8-112.6-94.1-182.9-94.1H1059.4z M987.3,427.5h153.9v400.3H987.3V427.5z"/>
<path fill="#FFFFFF" d="M2068.6,195.1c-32.6-36.9-63.5-64.4-92.5-82.3C1923,82.3,1875.3,64.6,1833,59.6c-15.4-4.7-75.3-7-179.7-7
	h-308.5c19.7,14.7,39.7,31.4,60.4,51.6c30.4,31.1,55.6,64.1,76,99.1h258.2c70.6,0,125,15.6,163,46.8c20.8,13.3,39.8,32.6,57,58.1
	c27.6,44.1,41.4,88.9,41.4,134.5c0,45.2-16,91.6-47.9,139.3c-26.2,37.7-67.4,66-123.7,85c-21.2,6.8-51.1,10.2-89.8,10.2H1545v150.6
	h177.8c90,0,156.7-11.1,200.1-33.4c93.6-41.2,160.9-108.3,201.7-201.2c20.8-47.7,31.2-98.5,31.2-152.2
	C2155.8,349.2,2126.7,267.2,2068.6,195.1z"/>
<g>
</g>
<g>
</g>
<g>
</g>
<g>
</g>
<g>
</g>
<g>
</g>
</svg>
